<?xml version="1.0" standalone="no"?>
<!DOCTYPE svg PUBLIC "-//W3C//DTD SVG 20010904//EN"
 "http://www.w3.org/TR/2001/REC-SVG-20010904/DTD/svg10.dtd">
<svg version="1.0" xmlns="http://www.w3.org/2000/svg"
 width="503.000000pt" height="496.000000pt" viewBox="0 0 503.000000 496.000000"
 preserveAspectRatio="xMidYMid meet">

<g transform="translate(0.000000,496.000000) scale(0.100000,-0.100000)"
fill="#000000" stroke="none">
<path d="M2688 4913 c6 -2 18 -2 25 0 6 3 1 5 -13 5 -14 0 -19 -2 -12 -5z"/>
<path d="M2825 4906 c60 -15 178 -72 228 -110 50 -39 87 -106 94 -172 3 -30 9
-51 14 -47 9 10 -7 96 -26 139 -19 42 -101 117 -161 147 -56 29 -148 57 -178
56 -12 0 2 -6 29 -13z"/>
<path d="M2554 4851 c-22 -17 -46 -41 -53 -55 -8 -14 -20 -26 -27 -28 -9 -2
-10 -8 -5 -17 7 -11 13 -7 25 16 8 17 36 49 62 72 55 48 54 53 -2 12z"/>
<path d="M2250 4750 c-18 -12 -2 -12 25 0 13 6 15 9 5 9 -8 0 -22 -4 -30 -9z"/>
<path d="M2184 4721 c-57 -35 -70 -143 -33 -274 23 -77 66 -128 136 -159 44
-19 50 -27 34 -44 -11 -11 -44 -114 -39 -119 2 -2 23 43 47 101 l44 104 42 0
c34 0 49 6 79 35 21 19 39 35 42 35 2 0 22 -11 43 -24 78 -50 163 -53 254 -10
l35 17 37 -38 c41 -41 90 -65 131 -65 26 0 26 -1 20 -47 l-6 -48 15 45 c20 60
20 60 -15 60 -47 0 -95 24 -124 62 -27 37 -34 68 -14 68 6 0 8 3 5 6 -4 4 -26
-6 -49 -21 -44 -29 -123 -55 -170 -55 -43 0 -131 44 -174 86 -31 31 -35 34
-21 11 17 -27 17 -30 2 -54 -24 -36 -78 -56 -121 -44 -19 5 -32 6 -29 1 8 -13
-17 -60 -32 -60 -51 0 -130 85 -158 169 -40 120 -28 215 33 256 43 29 32 34
-14 6z"/>
<path d="M3288 4520 c34 -21 75 -58 92 -81 26 -37 30 -50 30 -109 0 -60 -4
-74 -32 -116 -22 -32 -59 -66 -108 -99 -70 -47 -79 -50 -149 -54 -60 -3 -77 0
-86 13 -11 14 -13 12 -19 -15 -3 -18 -4 -34 -1 -37 3 -3 5 2 5 11 0 15 12 17
84 17 74 0 91 4 142 31 222 116 244 362 41 457 -68 32 -68 27 1 -18z"/>
<path d="M1740 4374 c-107 -21 -196 -70 -265 -146 -52 -58 -65 -94 -72 -204
-6 -94 14 -199 52 -275 31 -60 31 -65 1 -73 -40 -10 -274 -191 -374 -289 -102
-100 -240 -264 -277 -329 l-23 -41 31 -33 c16 -19 38 -34 47 -34 10 0 36 27
60 61 59 85 85 107 134 120 33 8 51 22 84 63 23 29 59 66 79 82 20 16 74 59
119 95 45 37 124 90 174 119 88 49 94 51 145 45 67 -9 117 17 158 80 23 37 36
46 81 59 30 9 61 16 68 16 8 0 23 9 34 21 37 41 69 51 131 39 91 -16 126 -13
184 20 84 47 158 80 180 80 12 0 35 -10 52 -22 18 -13 33 -21 35 -19 6 7 61
-22 56 -30 -3 -5 -2 -8 3 -7 15 5 83 -25 83 -36 0 -5 3 -7 6 -3 7 7 190 -86
217 -110 9 -9 17 -20 17 -25 0 -19 46 -104 65 -120 39 -33 57 -33 88 2 24 27
28 39 26 83 -1 29 2 51 7 50 22 -4 267 -145 320 -185 185 -136 342 -296 452
-460 73 -110 202 -384 202 -429 0 -18 -1 -18 -32 1 -18 11 -49 20 -68 19 -31
0 -32 -1 -13 -9 25 -10 63 -65 63 -91 0 -9 7 -22 15 -29 23 -19 18 -48 -12
-64 -16 -8 -38 -28 -51 -45 -27 -37 -35 -38 -51 -7 -7 13 -32 34 -55 47 -36
21 -54 24 -146 24 -127 0 -133 -3 -303 -118 -17 -11 -39 -17 -53 -14 -17 3
-28 -2 -39 -19 -19 -29 -46 -31 -70 -4 -14 15 -15 25 -7 49 9 24 8 31 -6 36
-10 3 -21 0 -28 -9 -13 -18 -45 -21 -61 -5 -8 8 -20 6 -43 -6 -23 -12 -35 -14
-43 -6 -18 18 -54 12 -86 -15 -39 -32 -39 -40 -1 -47 25 -6 30 -11 30 -36 0
-31 -25 -65 -41 -56 -5 4 -9 13 -9 21 0 8 -11 26 -24 39 -31 30 -75 22 -94
-19 -18 -37 -1 -56 50 -56 50 0 133 -41 174 -86 18 -19 41 -34 53 -34 30 0 26
9 -10 22 -29 10 -31 13 -27 59 2 30 -1 50 -8 53 -20 8 -22 64 -4 81 24 22 43
19 76 -12 27 -25 34 -27 104 -24 72 3 77 5 174 67 153 99 199 118 284 123 68
3 75 1 101 -23 16 -15 33 -45 40 -66 6 -22 16 -40 21 -40 6 0 10 -11 10 -25 0
-17 -9 -29 -30 -40 -16 -8 -36 -28 -44 -43 -8 -15 -28 -38 -46 -50 -26 -20
-36 -22 -58 -13 -15 5 -53 9 -84 8 -50 -2 -60 1 -86 27 -29 26 -34 28 -89 21
-34 -4 -69 -2 -86 4 -22 8 -27 8 -27 -4 0 -18 -62 -45 -102 -45 l-30 0 7 -52
c4 -29 9 -56 11 -60 3 -4 26 4 52 18 37 20 55 24 87 19 60 -9 83 -28 87 -72 4
-47 38 -68 94 -57 28 5 39 13 48 35 12 34 25 36 48 10 16 -19 58 -19 58 1 0 5
20 7 45 6 25 -2 45 -6 45 -10 0 -5 -5 -8 -11 -8 -8 0 -9 -4 0 -13 6 -8 7 -17
3 -21 -4 -4 8 -5 27 -3 41 7 93 -2 85 -14 -3 -5 2 -6 11 -3 14 6 14 8 0 24
-13 14 -19 88 -6 75 2 -3 10 0 17 6 9 7 14 5 19 -11 3 -11 10 -18 15 -15 4 3
13 -2 20 -10 9 -11 33 -15 81 -15 64 0 71 2 96 30 l27 30 37 -36 c45 -44 70
-42 80 4 11 52 21 57 85 42 49 -12 59 -12 81 2 23 14 26 23 27 73 1 54 3 59
28 67 24 8 32 5 60 -22 28 -28 36 -31 70 -26 21 4 56 13 78 22 38 15 40 18 40
59 0 24 -5 47 -11 50 -16 11 -55 -3 -87 -29 -31 -27 -33 -25 -32 37 0 28 -3
30 -53 41 -35 8 -45 31 -23 55 23 25 20 54 -8 80 l-25 23 -56 -23 c-30 -12
-63 -30 -73 -38 -31 -29 -88 -25 -139 8 -26 17 -57 31 -69 31 -34 0 -54 10
-54 27 0 13 11 14 67 8 36 -4 72 -9 80 -12 72 -28 -138 494 -275 680 -31 43
-67 93 -80 110 -29 40 -272 287 -283 287 -4 0 -41 26 -81 58 -110 88 -176 128
-333 203 -133 63 -144 70 -155 104 -7 21 -30 51 -56 72 -24 21 -44 46 -45 58
-1 11 -11 -10 -23 -46 -11 -37 -27 -74 -35 -83 -31 -36 -264 -10 -439 50 -140
48 -174 68 -204 119 -16 25 -28 55 -28 66 0 11 -4 18 -9 14 -5 -3 -19 9 -32
27 -39 58 -183 199 -224 220 -32 17 -61 22 -145 24 -58 1 -116 0 -130 -2z
m2483 -2020 c14 -14 30 -44 37 -65 7 -21 17 -39 22 -39 24 0 0 -38 -67 -107
l-74 -77 -34 16 c-22 10 -39 13 -48 7 -26 -16 -49 -10 -49 14 0 29 9 41 45 60
76 39 125 111 125 182 0 42 11 44 43 9z m-973 -132 c0 -5 -7 -9 -15 -9 -8 0
-12 4 -9 9 3 4 9 8 15 8 5 0 9 -4 9 -8z m1400 -33 c0 -25 -33 -22 -38 4 -2 12
3 17 17 17 15 0 21 -6 21 -21z m-107 -36 c11 4 14 1 10 -8 -4 -11 -10 -12 -24
-5 -10 6 -22 10 -25 9 -3 0 -9 3 -12 7 -4 4 -1 4 6 0 7 -4 12 -2 12 6 0 10 2
10 9 -1 5 -8 16 -11 24 -8z m-1228 -93 c3 -5 1 -10 -4 -10 -6 0 -11 5 -11 10
0 6 2 10 4 10 3 0 8 -4 11 -10z m1090 -10 c-3 -5 -14 -10 -23 -9 -14 0 -13 2
3 9 27 11 27 11 20 0z m94 -22 c12 -16 11 -18 -7 -18 -14 0 -19 5 -17 18 2 9
4 19 4 21 1 2 2 2 4 0 1 -2 9 -12 16 -21z m-500 -27 c8 -5 11 -16 8 -25 -4 -9
-2 -16 2 -16 5 0 12 6 14 13 3 7 6 5 6 -5 1 -12 -6 -18 -19 -18 -11 0 -20 6
-20 14 0 10 -8 13 -25 10 -17 -3 -25 0 -25 9 0 27 30 36 59 18z m-94 -51 c13
-6 15 -9 5 -9 -8 0 -22 4 -30 9 -18 12 -2 12 25 0z m230 -10 c3 -5 -4 -6 -14
-3 -10 3 -29 -1 -41 -7 -18 -10 -21 -9 -15 1 6 9 2 11 -14 6 -17 -4 -20 -2
-12 7 11 13 88 10 96 -4z m-278 -27 c-4 -3 -2 -12 4 -19 8 -9 5 -11 -10 -7
-28 7 -26 33 2 33 6 0 7 -3 4 -7z m58 -23 c17 -3 19 -10 4 -10 -9 0 -24 7 -35
16 -19 15 -19 15 1 6 11 -6 25 -11 30 -12z"/>
<path d="M3036 4149 c-8 -42 0 -50 9 -9 4 17 5 34 2 36 -2 3 -7 -10 -11 -27z"/>
<path d="M2460 3676 c0 -2 9 -6 20 -9 11 -3 18 -1 14 4 -5 9 -34 13 -34 5z"/>
<path d="M2511 3657 c2 -1 13 -9 24 -17 19 -14 19 -14 6 3 -7 9 -18 17 -24 17
-6 0 -8 -1 -6 -3z"/>
<path d="M2033 3562 c-18 -26 -33 -53 -33 -60 0 -18 51 -15 73 6 20 17 20 17
2 -15 -15 -25 -26 -33 -47 -33 -15 0 -28 -4 -28 -10 0 -16 64 1 82 22 19 22
43 96 34 106 -3 3 -15 -3 -26 -13 -21 -19 -23 -16 -20 23 1 12 0 22 -2 22 -2
0 -18 -21 -35 -48z"/>
<path d="M2415 3583 c-31 -34 -49 -95 -42 -146 10 -70 67 -128 106 -108 11 6
42 11 69 11 49 0 49 0 56 38 11 68 7 132 -11 160 -25 39 -35 43 -47 20 -29
-57 -81 -47 -81 16 0 44 -15 46 -50 9z m165 -143 c0 -25 -37 -78 -60 -85 -14
-4 -28 -1 -41 10 -15 14 -22 15 -33 6 -8 -7 -20 -10 -26 -6 -13 8 -13 42 0 50
6 4 8 10 5 15 -3 5 7 6 22 3 48 -9 78 -8 79 2 1 6 7 25 15 43 l14 33 12 -28
c7 -15 12 -35 13 -43z"/>
<path d="M2510 3410 c-23 -7 -23 -8 -3 -9 12 -1 25 4 28 9 3 6 5 10 3 9 -2 -1
-14 -5 -28 -9z"/>
<path d="M2580 3596 c0 -2 8 -10 18 -17 15 -13 16 -12 3 4 -13 16 -21 21 -21
13z"/>
<path d="M2079 3443 c-31 -27 -38 -28 -153 -30 -156 -3 -192 -9 -242 -38 -56
-33 -125 -111 -160 -182 -26 -51 -29 -69 -29 -148 0 -73 6 -106 28 -173 16
-45 41 -97 55 -113 l26 -31 20 28 c72 100 192 177 295 190 l54 7 -6 -59 c-14
-133 -66 -209 -185 -272 -59 -31 -72 -52 -34 -52 9 0 30 -7 46 -15 15 -8 33
-15 40 -15 24 0 176 -43 176 -51 0 -4 -27 -27 -61 -50 -66 -46 -83 -71 -93
-135 -9 -52 8 -94 63 -156 51 -57 112 -88 174 -88 29 0 63 -9 89 -22 55 -29
124 -30 164 -1 59 42 104 176 104 308 0 66 -6 92 -30 150 l-30 69 30 31 c24
25 140 241 140 261 0 3 19 44 41 92 23 48 52 118 65 156 37 107 19 135 -86
136 -80 0 -185 22 -237 49 -27 13 -56 43 -91 94 -28 41 -59 77 -68 81 -34 13
-73 5 -105 -21z m95 -14 c15 -12 42 -45 60 -74 63 -98 134 -133 288 -142 53
-3 102 -10 110 -14 23 -15 -68 -95 -157 -138 -128 -63 -220 -81 -409 -81 -230
0 -311 -29 -424 -149 l-43 -46 -18 25 c-33 42 -54 121 -58 220 -5 92 -4 97 27
155 38 71 98 137 157 172 39 23 53 25 160 25 141 0 195 10 237 43 38 30 37 30
70 4z m450 -355 c-14 -37 -32 -81 -41 -98 -9 -17 -37 -79 -63 -137 -69 -156
-119 -227 -197 -280 l-66 -44 -101 1 c-96 0 -279 34 -291 54 -2 4 42 17 100
29 196 42 324 99 417 185 49 45 163 196 223 294 21 34 39 62 41 62 2 0 -8 -30
-22 -66z m-221 -183 c8 -8 5 -16 -11 -31 -26 -25 -28 -25 -35 0 -11 43 -49 37
-116 -17 l-35 -28 19 32 c26 44 69 65 123 59 24 -2 49 -9 55 -15z m-222 -47
c-12 -15 -21 -22 -21 -15 0 16 -37 14 -65 -5 -14 -9 -41 -38 -61 -66 -50 -67
-57 -52 -9 18 42 61 95 100 141 106 37 4 41 -5 15 -38z"/>
<path d="M2260 3195 c-11 -13 -8 -15 19 -15 21 0 31 5 31 15 0 8 -8 15 -19 15
-10 0 -24 -7 -31 -15z"/>
<path d="M2631 3394 c0 -11 3 -14 6 -6 3 7 2 16 -1 19 -3 4 -6 -2 -5 -13z"/>
<path d="M565 2860 c10 -11 23 -20 28 -20 6 0 1 9 -11 20 -12 11 -24 20 -28
20 -4 0 1 -9 11 -20z"/>
<path d="M430 2685 c0 -5 86 -86 122 -115 15 -11 29 -17 31 -12 3 4 -30 35
-74 70 -43 34 -79 60 -79 57z"/>
<path d="M3720 2500 c-68 -39 -131 -77 -140 -85 -8 -8 -31 -21 -50 -29 -32
-14 -33 -15 -9 -16 14 0 61 24 110 55 127 83 222 127 293 135 l61 7 -70 2
c-70 1 -72 0 -195 -69z"/>
<path d="M337 2449 c6 -8 31 -25 55 -38 38 -21 41 -22 22 -3 -27 25 -94 62
-77 41z"/>
<path d="M500 1707 c0 -48 76 -333 115 -435 14 -34 25 -72 25 -83 0 -12 -18
-75 -40 -140 -22 -66 -40 -126 -40 -134 0 -8 46 -54 103 -102 56 -49 126 -112
155 -141 29 -30 67 -66 85 -82 l32 -28 -4 44 c-5 66 38 148 91 175 53 27 90
22 102 -14 13 -36 -6 -72 -54 -105 -27 -18 -37 -33 -42 -65 -4 -23 -17 -49
-28 -59 -22 -17 -19 -20 172 -197 l56 -52 84 21 83 22 130 -70 c358 -193 813
-271 1200 -206 265 45 562 152 718 258 l38 26 76 -35 c89 -41 105 -43 130 -12
10 12 48 49 84 82 35 33 144 136 242 229 97 93 186 176 197 183 28 20 25 41
-17 161 -31 87 -35 109 -26 131 6 14 34 76 61 136 47 105 92 243 107 330 3 22
9 51 11 65 3 15 -5 6 -21 -24 -14 -26 -31 -56 -38 -66 -22 -32 -122 -144 -173
-195 -28 -29 -67 -83 -88 -125 -59 -115 -97 -182 -116 -202 -16 -18 -20 -17
-116 21 -54 21 -178 57 -274 81 -96 23 -183 46 -192 51 -10 5 -32 9 -50 9 -18
0 -71 7 -117 15 -282 50 -664 71 -993 56 -203 -10 -284 -18 -551 -51 -49 -7
-94 -9 -102 -6 -8 3 -15 0 -17 -6 -3 -9 -34 -16 -153 -33 -72 -10 -149 -27
-270 -59 -151 -40 -141 -44 -200 69 -20 38 -48 79 -62 90 -15 11 -38 30 -52
43 l-26 23 31 -6 c29 -6 31 -4 26 20 -2 14 -14 31 -25 37 -32 17 -43 27 -141
121 -94 92 -94 95 -13 71 27 -8 20 7 -39 81 -66 83 -74 91 -74 82z m1499 -726
c20 -13 8 -86 -25 -149 -15 -29 -25 -55 -22 -57 12 -12 34 9 53 48 18 38 24
42 55 42 34 0 35 -1 32 -37 -4 -39 5 -47 26 -26 6 6 15 8 19 5 4 -4 -3 -17
-14 -28 -15 -16 -36 -22 -79 -25 -33 -2 -70 -6 -85 -9 -20 -5 -27 -2 -37 20
-7 14 -12 36 -12 48 0 39 30 141 47 159 18 20 22 21 42 9z m370 -2 c17 -6 31
-15 31 -19 0 -5 3 -15 6 -24 4 -9 -5 -25 -21 -40 -23 -21 -24 -27 -14 -44 20
-32 -10 -68 -68 -81 -26 -6 -59 -14 -72 -17 l-24 -7 6 71 c3 39 11 80 17 91
13 25 45 29 36 5 -3 -9 -9 -40 -12 -70 -6 -47 -4 -54 10 -54 21 0 58 19 68 34
10 15 -11 36 -34 36 -28 0 -17 24 13 28 51 8 69 57 25 68 -21 5 -94 -12 -143
-32 -24 -10 -13 22 11 35 52 28 118 36 165 20z m647 -24 c8 -21 -10 -70 -27
-70 -18 0 -24 38 -9 64 13 25 28 27 36 6z m58 -3 c8 -14 -16 -83 -28 -79 -12
4 -20 52 -12 73 6 15 32 19 40 6z m196 -34 c41 -44 16 -106 -47 -118 -22 -4
-29 -13 -37 -45 -14 -61 -33 -69 -71 -30 -45 44 -29 160 27 199 34 24 103 21
128 -6z m-1840 -60 c0 -25 -11 -66 -25 -96 -29 -62 -30 -72 -11 -72 8 0 17 14
21 33 4 17 14 40 23 50 19 21 61 22 76 1 15 -20 45 -8 57 22 4 13 16 24 25 24
10 0 14 -5 10 -15 -6 -16 12 -65 24 -65 3 0 11 5 18 12 15 15 24 6 16 -16 -6
-17 -64 -46 -90 -46 -19 0 -17 20 4 36 9 7 12 14 6 14 -6 0 -19 -9 -29 -20
-22 -25 -36 -26 -29 -2 4 9 -6 2 -21 -16 -20 -24 -35 -33 -54 -31 -14 1 -38
-4 -53 -11 -21 -10 -31 -10 -41 -1 -11 9 -17 8 -26 -3 -20 -24 -51 -26 -64 -5
-16 26 -24 24 -54 -11 -27 -33 -54 -38 -73 -15 -18 22 -4 82 25 101 27 18 65
11 65 -12 0 -27 18 -14 25 19 15 79 29 117 50 137 27 25 45 19 45 -13 0 -19 3
-18 20 11 12 19 28 32 40 32 17 0 20 -7 20 -42z m1016 15 c-6 -16 -6 -16 12 0
28 25 52 22 52 -8 0 -14 3 -25 6 -25 3 0 15 11 26 25 19 25 42 31 72 19 12 -5
15 -15 10 -45 -9 -53 8 -50 42 6 25 44 61 64 50 28 -3 -10 3 -31 14 -48 l19
-30 12 33 c6 18 23 39 38 46 38 20 61 1 61 -49 0 -37 0 -38 20 -20 19 18 20
17 20 -4 0 -26 -44 -51 -62 -33 -8 8 -16 7 -29 -1 -13 -8 -22 -8 -29 -1 -8 8
-23 9 -52 1 -34 -8 -43 -7 -53 6 -7 10 -16 12 -24 7 -8 -4 -36 -8 -62 -8 -38
0 -52 5 -60 19 -5 11 -16 19 -25 19 -8 0 -19 10 -23 23 -9 21 -10 19 -28 -20
-25 -60 -43 -56 -43 10 0 57 4 67 28 67 9 0 12 -6 8 -17z m1222 5 c19 -19 14
-74 -13 -130 -17 -34 -22 -55 -15 -62 5 -5 11 -8 12 -5 2 2 10 18 18 34 23 44
64 46 88 6 18 -33 46 -41 56 -16 9 25 36 18 36 -10 0 -35 28 -75 47 -68 11 4
14 1 11 -13 -5 -26 -85 -33 -95 -9 -3 10 0 21 8 25 7 5 10 12 6 16 -4 4 -13 2
-19 -4 -17 -17 -41 -15 -34 3 3 8 3 15 0 15 -3 0 -12 -7 -20 -15 -18 -17 -50
-20 -59 -5 -3 6 -21 10 -40 10 -19 0 -36 4 -39 9 -3 4 -16 6 -29 4 -17 -3 -30
2 -43 19 -10 13 -27 27 -36 31 -10 3 -18 13 -18 22 0 26 -17 17 -29 -15 -9
-27 -14 -30 -38 -24 -15 3 -35 8 -43 11 -8 3 -25 5 -37 4 -31 -3 -57 38 -44
72 14 36 43 50 75 35 23 -10 25 -15 19 -51 -8 -50 14 -48 31 3 11 35 36 53 36
27 0 -10 10 -15 33 -13 28 1 32 -2 30 -21 -2 -13 2 -23 7 -23 6 0 10 5 10 10
0 6 12 16 28 23 33 14 42 25 42 52 0 22 26 65 39 65 4 0 12 -5 19 -12z m-1856
-88 l-4 -45 26 24 c18 17 26 20 26 10 -1 -31 -52 -69 -66 -48 -4 6 -13 4 -25
-7 -19 -17 -21 -17 -40 3 -24 23 -20 46 13 88 14 19 28 25 47 23 24 -3 26 -6
23 -48z m2142 -19 c9 -14 -15 -72 -28 -68 -13 4 -20 42 -12 63 6 16 32 19 40
5z m54 -22 c4 -23 -16 -71 -28 -64 -5 3 -10 24 -10 46 0 33 3 40 17 37 10 -2
19 -10 21 -19z m-934 -323 c60 -10 118 -21 130 -25 19 -8 19 -9 -10 -24 -100
-52 -380 -132 -528 -152 -276 -37 -538 -8 -823 91 -130 45 -158 60 -132 68 26
8 254 35 399 46 80 7 152 13 160 15 8 2 168 2 355 1 263 -2 365 -7 449 -20z"/>
<path d="M1962 921 c-6 -19 -12 -43 -11 -55 0 -16 4 -13 15 13 8 18 14 43 12
55 -3 17 -6 15 -16 -13z"/>
<path d="M2042 838 c-14 -14 -16 -58 -3 -58 10 0 26 58 19 66 -2 2 -10 -2 -16
-8z"/>
<path d="M3145 886 c-9 -13 -19 -40 -22 -59 -6 -41 3 -90 16 -83 13 9 19 54 8
65 -6 6 -4 15 7 26 9 9 16 25 16 36 0 13 7 19 21 19 18 0 21 -5 17 -30 -4 -27
-2 -31 16 -28 25 4 36 56 14 69 -28 18 -77 10 -93 -15z"/>
<path d="M1382 813 c-11 -52 -9 -65 6 -36 16 30 25 83 14 83 -6 0 -15 -21 -20
-47z"/>
<path d="M1301 802 c-7 -29 -11 -55 -8 -58 8 -9 29 64 25 88 -3 16 -8 7 -17
-30z"/>
<path d="M1313 726 c-27 -55 -27 -56 -9 -56 23 0 37 27 34 66 l-3 37 -22 -47z"/>
<path d="M1457 753 c-4 -3 -7 -17 -7 -30 0 -24 24 -32 33 -10 6 15 -17 50 -26
40z"/>
<path d="M1170 676 c0 -27 15 -42 25 -26 8 13 -3 50 -16 50 -5 0 -9 -11 -9
-24z"/>
<path d="M2572 848 c-14 -14 -16 -48 -3 -48 9 0 25 49 18 56 -2 2 -9 -2 -15
-8z"/>
<path d="M2799 829 c-8 -15 -8 -24 0 -32 7 -7 12 -5 16 6 3 9 7 24 10 32 7 23
-13 18 -26 -6z"/>
<path d="M2675 810 c-3 -5 1 -10 9 -10 9 0 16 5 16 10 0 6 -4 10 -9 10 -6 0
-13 -4 -16 -10z"/>
<path d="M3645 838 c-8 -29 -12 -69 -5 -61 10 11 23 73 15 73 -3 0 -7 -6 -10
-12z"/>
<path d="M3343 789 c-16 -16 -17 -49 -3 -49 13 0 23 24 18 45 -2 13 -5 14 -15
4z"/>
<path d="M3577 733 c-13 -12 -7 -43 8 -43 9 0 15 9 15 25 0 24 -10 32 -23 18z"/>
<path d="M3707 714 c-11 -11 -8 -42 4 -50 19 -11 28 10 15 34 -6 12 -15 19
-19 16z"/>
<path d="M1763 799 c-16 -16 -17 -49 -3 -49 13 0 23 24 18 45 -2 13 -5 14 -15
4z"/>
<path d="M1028 754 c-44 -23 -79 -114 -63 -163 12 -40 28 -23 22 23 -4 28 -2
46 4 48 6 2 14 19 18 38 4 23 13 36 25 38 16 4 18 -1 13 -27 -7 -35 2 -40 26
-13 21 23 22 58 1 66 -19 7 -13 8 -46 -10z"/>
</g>
</svg>
