<?xml version="1.0" standalone="no"?>
<!DOCTYPE svg PUBLIC "-//W3C//DTD SVG 20010904//EN"
 "http://www.w3.org/TR/2001/REC-SVG-20010904/DTD/svg10.dtd">
<svg version="1.0" xmlns="http://www.w3.org/2000/svg"
 width="503.000000pt" height="496.000000pt" viewBox="0 0 503.000000 496.000000"
 preserveAspectRatio="xMidYMid meet">
<metadata>
Created by potrace 1.16, written by Peter Selinger 2001-2019
</metadata>
<g transform="translate(0.000000,496.000000) scale(0.100000,-0.100000)"
fill="#000000" stroke="none">
<path d="M2648 4910 c-65 -27 -118 -63 -150 -104 -21 -26 -33 -33 -50 -29 -22
4 -22 4 -3 -8 11 -7 23 -17 26 -22 4 -5 14 3 22 20 18 35 83 95 126 118 53 27
130 37 191 24 62 -13 188 -71 243 -113 50 -38 87 -106 94 -171 3 -30 9 -52 13
-50 12 7 94 -30 146 -66 25 -17 58 -49 75 -71 25 -36 29 -50 29 -108 0 -60 -4
-74 -32 -116 -22 -32 -59 -66 -108 -99 -71 -48 -79 -50 -152 -54 -67 -3 -79
-1 -85 15 -4 11 -16 -20 -35 -92 -16 -60 -37 -117 -45 -126 -34 -38 -263 -13
-441 48 -140 48 -174 68 -204 119 -16 25 -28 55 -28 65 0 11 21 69 47 130 l46
110 42 0 c34 0 49 6 79 35 21 19 39 35 42 35 2 0 22 -11 43 -24 78 -50 163
-53 254 -10 l35 17 37 -38 c41 -41 90 -65 131 -65 26 0 26 -1 20 -47 l-6 -48
15 45 c20 60 20 60 -15 60 -47 0 -95 24 -124 62 -27 37 -34 68 -14 68 6 0 8 3
5 6 -4 4 -26 -6 -49 -21 -44 -29 -123 -55 -170 -55 -43 0 -131 44 -174 86 -31
31 -35 34 -21 11 17 -27 17 -30 2 -54 -24 -36 -78 -56 -121 -44 -19 5 -32 6
-29 1 8 -13 -17 -60 -32 -60 -51 0 -130 85 -158 169 -37 112 -27 214 24 250
26 19 113 55 156 64 11 3 2 3 -20 1 -55 -4 -145 -43 -172 -73 -46 -52 -42
-196 8 -308 21 -46 77 -97 127 -115 18 -7 31 -15 30 -18 -2 -3 -16 -38 -31
-78 l-29 -72 -42 58 c-63 84 -175 187 -221 203 -26 9 -80 14 -155 13 -163 -1
-242 -30 -348 -129 -56 -51 -79 -96 -92 -180 -17 -105 5 -249 51 -335 25 -45
24 -47 -13 -66 -66 -34 -266 -191 -366 -288 -95 -92 -262 -293 -284 -343 -9
-17 -5 -27 22 -57 18 -20 41 -36 50 -36 10 0 36 27 60 61 60 85 85 107 136
120 30 8 56 24 77 47 57 62 82 86 132 127 28 22 74 61 103 87 29 26 93 70 143
98 87 49 93 51 144 45 68 -9 118 17 158 80 24 37 37 46 82 59 29 9 60 16 67
16 8 0 23 9 34 21 37 41 69 51 131 39 91 -16 126 -13 184 20 84 47 158 80 180
80 12 0 33 -9 47 -19 15 -10 31 -19 35 -19 20 0 66 -25 61 -33 -3 -5 -2 -8 3
-7 15 5 83 -25 83 -36 0 -5 3 -7 6 -3 6 6 185 -83 212 -106 7 -6 20 -27 28
-46 33 -80 39 -89 72 -111 25 -18 38 -21 50 -14 32 20 55 62 56 103 0 23 4 41
8 41 8 0 132 -64 208 -108 47 -27 170 -116 205 -148 11 -11 51 -45 88 -78 68
-58 205 -219 264 -308 38 -57 132 -243 163 -323 13 -33 27 -64 32 -69 4 -6 8
-18 8 -29 0 -17 -2 -17 -30 3 -36 25 -115 39 -190 33 -43 -4 -78 -17 -165 -65
-60 -33 -125 -71 -142 -85 -18 -13 -48 -30 -65 -38 -31 -14 -32 -14 -7 -15 14
0 61 24 110 55 46 31 118 72 159 93 66 33 84 37 148 37 69 0 75 -2 98 -29 14
-15 28 -41 31 -57 3 -16 12 -34 19 -40 22 -18 16 -47 -13 -63 -16 -8 -38 -28
-51 -45 -27 -37 -35 -38 -51 -7 -7 13 -32 34 -55 47 -36 21 -54 24 -146 24
-127 0 -133 -3 -303 -118 -17 -11 -39 -17 -53 -14 -17 3 -28 -2 -39 -19 -19
-29 -46 -31 -70 -4 -14 15 -15 25 -7 49 9 24 8 31 -6 36 -10 3 -21 0 -28 -9
-13 -18 -45 -21 -61 -5 -8 8 -20 6 -43 -6 -23 -12 -35 -14 -43 -6 -18 18 -54
12 -86 -15 -39 -32 -39 -40 -1 -47 25 -6 30 -11 30 -36 0 -31 -25 -65 -41 -56
-5 4 -9 13 -9 21 0 8 -11 26 -24 39 -31 30 -75 22 -94 -19 -18 -37 -1 -56 50
-56 50 0 133 -41 174 -86 18 -19 41 -34 53 -34 30 0 26 9 -10 22 -29 10 -31
13 -27 59 2 30 -1 50 -8 53 -20 8 -22 64 -4 81 24 22 43 19 76 -12 27 -25 34
-27 104 -24 72 3 77 5 174 67 153 99 199 118 284 123 68 3 75 1 101 -23 16
-15 33 -45 40 -66 6 -22 16 -40 21 -40 6 0 10 -11 10 -25 0 -17 -9 -29 -30
-40 -16 -8 -36 -28 -44 -43 -8 -15 -28 -38 -46 -50 -26 -20 -36 -22 -58 -13
-15 5 -53 9 -84 8 -50 -2 -60 1 -86 27 -29 26 -34 28 -89 21 -34 -4 -69 -2
-86 4 -22 8 -27 8 -27 -4 0 -18 -62 -45 -102 -45 l-30 0 7 -53 c4 -28 9 -55
11 -59 3 -4 26 4 52 18 37 20 55 24 87 19 60 -9 83 -28 87 -72 4 -47 38 -68
94 -57 28 5 39 13 48 35 12 34 25 36 48 10 16 -19 58 -19 58 1 0 5 20 7 45 6
25 -2 45 -6 45 -10 0 -5 -5 -8 -11 -8 -8 0 -9 -4 0 -13 6 -8 7 -17 3 -21 -4
-4 8 -5 27 -3 41 7 93 -2 85 -14 -3 -5 2 -6 11 -3 14 6 14 8 0 24 -13 14 -19
88 -6 75 2 -3 10 0 17 6 9 7 14 5 19 -11 3 -11 10 -18 15 -15 4 3 13 -2 20
-10 9 -11 33 -15 81 -15 64 0 71 2 96 30 l27 30 37 -36 c45 -44 70 -42 80 4
11 52 21 57 85 42 49 -12 59 -12 81 2 23 14 26 23 27 73 1 54 3 59 28 67 24 8
32 5 60 -22 28 -28 36 -31 70 -26 21 4 56 13 78 22 38 15 40 18 40 59 0 24 -5
47 -11 50 -16 11 -55 -3 -87 -29 -31 -27 -33 -25 -32 37 0 28 -3 30 -53 41
-35 8 -45 31 -23 55 32 36 8 101 -37 101 -22 0 -99 -36 -123 -58 -33 -30 -89
-27 -141 7 -26 17 -57 31 -69 31 -34 0 -54 10 -54 27 0 13 10 14 63 9 34 -4
73 -10 86 -13 22 -6 23 -4 16 38 -22 140 -152 443 -261 609 -99 152 -302 374
-412 449 -31 21 -67 48 -79 60 -43 41 -178 122 -292 176 -168 80 -164 77 -175
113 -5 19 -28 50 -53 71 -36 32 -43 45 -43 75 l0 36 83 0 c73 0 92 4 143 30
138 69 209 191 182 313 -19 88 -79 144 -200 187 -52 18 -53 19 -60 65 -18 125
-128 228 -296 276 -84 24 -163 23 -224 -1z m1575 -2556 c14 -14 30 -44 37 -65
7 -21 17 -39 22 -39 24 0 0 -38 -67 -107 l-74 -77 -34 16 c-22 10 -39 13 -48
7 -26 -16 -49 -10 -49 14 0 29 9 41 45 60 76 39 125 111 125 182 0 42 11 44
43 9z"/>
<path d="M2415 3583 c-31 -34 -49 -95 -42 -146 10 -70 67 -128 106 -108 11 6
42 11 69 11 49 0 49 0 56 38 11 68 7 132 -11 160 -25 39 -35 43 -47 20 -29
-57 -81 -47 -81 16 0 44 -15 46 -50 9z"/>
<path d="M2079 3443 c-31 -27 -38 -28 -153 -30 -67 -1 -140 -5 -163 -8 -41 -6
-144 -65 -172 -98 -46 -57 -89 -156 -101 -233 -10 -63 -8 -77 15 -159 27 -92
50 -138 83 -168 18 -17 20 -16 37 9 60 93 192 177 294 190 l54 7 -6 -59 c-14
-133 -66 -209 -185 -272 -59 -31 -72 -52 -34 -52 9 0 30 -7 46 -15 15 -8 33
-15 40 -15 24 0 176 -43 176 -51 0 -4 -27 -27 -61 -50 -66 -46 -83 -71 -93
-135 -9 -52 8 -94 63 -156 51 -57 112 -88 174 -88 29 0 63 -9 89 -22 55 -29
124 -30 164 -1 59 42 104 176 104 308 0 66 -6 92 -30 150 l-30 69 30 31 c24
25 140 241 140 261 0 3 19 44 41 92 23 48 52 118 65 156 37 107 19 135 -86
136 -80 0 -185 22 -237 49 -27 13 -56 43 -91 94 -28 41 -59 77 -68 81 -34 13
-73 5 -105 -21z m95 -14 c15 -12 42 -45 60 -74 63 -98 134 -133 288 -142 53
-3 102 -10 110 -14 23 -15 -68 -95 -157 -138 -128 -63 -220 -81 -409 -81 -230
0 -311 -29 -424 -149 l-43 -46 -18 25 c-33 42 -54 121 -58 220 -5 92 -4 97 27
155 38 71 98 137 157 172 39 23 53 25 160 25 141 0 195 10 237 43 38 30 37 30
70 4z m450 -355 c-14 -37 -32 -81 -41 -98 -9 -17 -37 -79 -63 -137 -69 -156
-119 -227 -197 -280 l-66 -44 -101 1 c-96 0 -279 34 -291 54 -2 4 42 17 100
29 196 42 324 99 417 185 49 45 163 196 223 294 21 34 39 62 41 62 2 0 -8 -30
-22 -66z"/>
<path d="M490 1717 c0 -6 7 -44 16 -82 8 -39 18 -81 21 -95 10 -48 55 -196 83
-272 l29 -78 -46 -140 -47 -140 35 -36 c18 -20 68 -64 109 -99 41 -34 109 -96
150 -136 42 -41 84 -81 95 -89 17 -14 18 -14 7 7 -34 63 11 189 80 224 53 27
90 22 102 -14 13 -37 -7 -73 -57 -106 -25 -16 -37 -32 -37 -47 0 -37 -19 -76
-40 -81 -11 -3 -20 -8 -20 -12 0 -14 254 -236 269 -235 9 1 47 10 84 20 67 18
69 18 100 0 70 -40 245 -125 273 -132 16 -4 34 -10 39 -14 21 -16 235 -79 320
-95 176 -32 232 -37 385 -37 218 -1 514 53 673 121 27 12 53 21 59 21 17 0
197 89 256 126 l52 34 65 -26 c36 -14 68 -30 71 -35 10 -16 43 -9 66 14 13 12
82 76 153 142 72 65 177 165 235 221 58 56 120 115 138 130 41 33 40 45 -12
188 l-36 99 20 31 c27 45 88 189 115 272 25 78 68 274 62 281 -3 2 -12 -13
-20 -34 -31 -75 -104 -169 -223 -288 -28 -29 -67 -83 -88 -125 -59 -115 -97
-182 -116 -202 -16 -18 -20 -17 -116 21 -54 21 -178 57 -274 81 -96 23 -183
46 -192 51 -10 5 -32 9 -50 9 -18 0 -71 7 -117 15 -282 50 -664 71 -993 56
-203 -10 -284 -18 -551 -51 -49 -7 -94 -9 -102 -6 -8 3 -15 0 -17 -6 -3 -9
-34 -16 -153 -33 -72 -10 -149 -27 -270 -59 -151 -40 -141 -44 -200 69 -20 38
-48 79 -62 90 -15 11 -38 30 -52 43 l-26 23 31 -6 c29 -6 31 -4 26 20 -2 14
-14 31 -25 37 -32 17 -43 27 -141 121 -94 92 -94 95 -13 71 28 -9 20 7 -47 91
-36 44 -62 83 -60 87 3 5 0 8 -5 8 -6 0 -11 -6 -11 -13z m1509 -736 c20 -13 8
-86 -25 -149 -15 -29 -25 -55 -22 -57 12 -12 34 9 53 48 18 38 24 42 55 42 34
0 35 -1 32 -37 -4 -39 5 -47 26 -26 6 6 15 8 19 5 4 -4 -3 -17 -14 -28 -15
-16 -36 -22 -79 -25 -33 -2 -70 -6 -85 -9 -20 -5 -27 -2 -37 20 -7 14 -12 36
-12 48 0 39 30 141 47 159 18 20 22 21 42 9z m370 -2 c17 -6 31 -15 31 -19 0
-5 3 -15 6 -24 4 -9 -5 -25 -21 -40 -23 -21 -24 -27 -14 -44 20 -32 -10 -68
-68 -81 -26 -6 -59 -14 -72 -17 l-24 -7 6 71 c3 39 11 80 17 91 13 25 45 29
36 5 -3 -9 -9 -40 -12 -70 -6 -47 -4 -54 10 -54 21 0 58 19 68 34 10 15 -11
36 -34 36 -28 0 -17 24 13 28 51 8 69 57 25 68 -21 5 -94 -12 -143 -32 -24
-10 -13 22 11 35 52 28 118 36 165 20z m901 -61 c41 -44 16 -106 -47 -118 -22
-4 -29 -13 -37 -45 -14 -61 -33 -69 -71 -30 -45 44 -29 160 27 199 34 24 103
21 128 -6z m-1840 -60 c0 -25 -11 -66 -25 -96 -29 -62 -30 -72 -11 -72 8 0 17
14 21 33 4 17 14 40 23 50 19 21 61 22 76 1 15 -20 45 -8 57 22 4 13 16 24 25
24 10 0 14 -5 10 -15 -6 -16 12 -65 24 -65 3 0 11 5 18 12 15 15 24 6 16 -16
-6 -17 -64 -46 -90 -46 -19 0 -17 20 4 36 9 7 12 14 6 14 -6 0 -19 -9 -29 -20
-22 -25 -36 -26 -29 -2 4 9 -6 2 -21 -16 -20 -24 -35 -33 -54 -31 -14 1 -38
-4 -53 -11 -21 -10 -31 -10 -41 -1 -11 9 -17 8 -26 -3 -20 -24 -51 -26 -64 -5
-16 26 -24 24 -54 -11 -27 -33 -54 -38 -73 -15 -18 22 -4 82 25 101 27 18 65
11 65 -12 0 -27 18 -14 25 19 15 79 29 117 50 137 27 25 45 19 45 -13 0 -19 3
-18 20 11 12 19 28 32 40 32 17 0 20 -7 20 -42z m1016 15 c-6 -16 -6 -16 12 0
28 25 52 22 52 -8 0 -14 3 -25 6 -25 3 0 15 11 26 25 19 25 42 31 72 19 12 -5
15 -15 10 -45 -9 -53 8 -50 42 6 25 44 61 64 50 28 -3 -10 3 -31 14 -48 l19
-30 12 33 c6 18 23 39 38 46 38 20 61 1 61 -49 0 -37 0 -38 20 -20 19 18 20
17 20 -4 0 -26 -44 -51 -62 -33 -8 8 -16 7 -29 -1 -13 -8 -22 -8 -29 -1 -8 8
-23 9 -52 1 -34 -8 -43 -7 -53 6 -7 10 -16 12 -24 7 -8 -4 -36 -8 -62 -8 -38
0 -52 5 -60 19 -5 11 -16 19 -25 19 -8 0 -19 10 -23 23 -9 21 -10 19 -28 -20
-25 -60 -43 -56 -43 10 0 57 4 67 28 67 9 0 12 -6 8 -17z m1222 5 c19 -19 14
-74 -13 -130 -17 -34 -22 -55 -15 -62 5 -5 11 -8 12 -5 2 2 10 18 18 34 23 44
64 46 88 6 18 -33 46 -41 56 -16 9 25 36 18 36 -10 0 -35 28 -75 47 -68 11 4
14 1 11 -13 -5 -26 -85 -33 -95 -9 -3 10 0 21 8 25 7 5 10 12 6 16 -4 4 -13 2
-19 -4 -17 -17 -41 -15 -34 3 3 8 3 15 0 15 -3 0 -12 -7 -20 -15 -18 -17 -50
-20 -59 -5 -3 6 -21 10 -40 10 -19 0 -36 4 -39 9 -3 4 -16 6 -29 4 -17 -3 -30
2 -43 19 -10 13 -27 27 -36 31 -10 3 -18 13 -18 22 0 26 -17 17 -29 -15 -9
-27 -14 -30 -38 -24 -15 3 -35 8 -43 11 -8 3 -25 5 -37 4 -31 -3 -57 38 -44
72 14 36 43 50 75 35 23 -10 25 -15 19 -51 -8 -50 14 -48 31 3 11 35 36 53 36
27 0 -10 10 -15 33 -13 28 1 32 -2 30 -21 -2 -13 2 -23 7 -23 6 0 10 5 10 10
0 6 12 16 28 23 33 14 42 25 42 52 0 22 26 65 39 65 4 0 12 -5 19 -12z m-594
-452 c60 -10 118 -21 130 -25 19 -8 19 -9 -10 -24 -100 -52 -380 -132 -528
-152 -276 -37 -538 -8 -823 91 -130 45 -158 60 -132 68 26 8 254 35 399 46 80
7 152 13 160 15 8 2 168 2 355 1 263 -2 365 -7 449 -20z"/>
</g>
</svg>
